HIERARCHY
ROOT Hips
{
	OFFSET 0.000000 0.000000 0.000000
	CHANNELS 6 Xposition Yposition Zposition Zrotation Yrotation Xrotation 
	JOINT LHipJoint
	{
		OFFSET 0.000000 0.000000 0.000000
		CHANNELS 3 Zrotation Yrotation Xrotation
		JOINT LeftUpLeg
		{
			OFFSET 1.363060 -1.794630 0.839290
			CHANNELS 3 Zrotation Yrotation Xrotation
			JOINT LeftLeg
			{
				OFFSET 2.448110 -6.726130 0.000000
				CHANNELS 3 Zrotation Yrotation Xrotation
				JOINT LeftFoot
				{
					OFFSET 2.562200 -7.039590 0.000000
					CHANNELS 3 Zrotation Yrotation Xrotation
					JOINT LeftToeBase
					{
						OFFSET 0.157640 -0.433110 2.322550
						CHANNELS 3 Zrotation Yrotation Xrotation
						End Site
						{
							OFFSET 0.000000 0.000000 0.000000
						}
					}
				}
			}
		}
	}
	JOINT RHipJoint
	{
		OFFSET 0.000000 0.000000 0.000000
		CHANNELS 3 Zrotation Yrotation Xrotation
		JOINT RightUpLeg
		{
			OFFSET -1.305520 -1.794630 0.839290
			CHANNELS 3 Zrotation Yrotation Xrotation
			JOINT RightLeg
			{
				OFFSET -2.542530 -6.985550 0.000000
				CHANNELS 3 Zrotation Yrotation Xrotation
				JOINT RightFoot
				{
					OFFSET -2.568260 -7.056230 0.000000
					CHANNELS 3 Zrotation Yrotation Xrotation
					JOINT RightToeBase
					{
						OFFSET -0.164730 -0.452590 2.363150
						CHANNELS 3 Zrotation Yrotation Xrotation
						End Site
						{
							OFFSET 0.000000 0.000000 0.000000
						}
					}
				}
			}
		}
	}
}
MOTION
Frames: 16
Frame Time: 0.008333
-0.694448 16.801295 -0.577599 30.681878 80.055173 28.464993 -11.561640 4.974715 -1.070414 5.116038 20.117362 3.520288 0.236521 2.236969 38.014145 1.323955 -1.197579 24.706116 -1.314300 0.000000 -77.142300 8.422100 -0.963642 -1.007875 19.188278 -16.152145 -22.848015 2.059631 0.010896 19.017692 -6.202527 -21.901923 -26.698010 -173.317000 0.000000 -11.822000
-0.512493 16.799145 -0.505007 29.254539 79.606631 26.987483 -11.655428 4.902277 -1.024952 5.263307 19.665162 2.437587 0.333123 2.306218 40.433259 1.472851 -0.961155 26.169247 -1.302500 0.000000 -72.330200 8.400132 -1.024816 -1.151895 19.199237 -16.431412 -22.542370 2.111342 -0.117096 20.242356 -6.066029 -21.205328 -27.239138 -173.242300 0.000001 -13.311300
-0.334498 16.794773 -0.433791 27.661904 79.080888 25.388542 -11.741013 4.816531 -0.991001 5.310736 19.195685 1.212248 0.412407 2.385651 42.886891 1.607124 -0.323974 27.049173 -1.046800 -0.000001 -67.012500 8.375772 -1.084612 -1.280141 19.239057 -16.632011 -22.260170 2.166503 -0.236929 21.420601 -5.913818 -20.424771 -27.735751 -173.224400 0.000000 -14.501099
-0.160431 16.788306 -0.363604 25.993552 78.485952 23.757225 -11.814571 4.718363 -0.968598 5.263005 18.708740 -0.141698 0.482909 2.477442 45.326426 1.726026 0.702108 27.339922 -0.553700 0.000000 -61.692000 8.352315 -1.140733 -1.388928 19.302918 -16.732711 -21.975177 2.220627 -0.344724 22.512553 -5.759306 -19.616267 -28.202656 -173.242000 0.000000 -15.471800
0.009958 16.780081 -0.293998 24.337834 77.833657 22.179176 -11.873616 4.607658 -0.955496 5.125527 18.197305 -1.605474 0.551397 2.580258 47.703228 1.830899 2.062810 27.064292 0.129900 -0.000000 -56.718300 8.332112 -1.191630 -1.477088 19.384093 -16.724620 -21.664162 2.270249 -0.438032 23.488814 -5.614707 -18.832967 -28.654604 -173.273400 0.000001 -16.300900
0.177016 16.770515 -0.224484 22.767014 77.138460 20.721739 -11.917081 4.483825 -0.948082 4.905026 17.650158 -3.156129 0.621532 2.690176 49.967978 1.923817 3.673310 26.266042 0.928400 0.000000 -52.297601 8.316466 -1.236042 -1.545875 19.473724 -16.609731 -21.307970 2.312918 -0.515499 24.329066 -5.489817 -18.119805 -29.103258 -173.299700 -0.000000 -17.055700
0.341159 16.760184 -0.154625 21.332362 76.415233 19.429684 -11.944866 4.346745 -0.941068 4.609186 17.052184 -4.766462 0.693625 2.801493 52.070044 2.007096 5.433158 25.011402 1.754800 0.000000 -48.578800 8.305901 -1.273087 -1.598056 19.562180 -16.398002 -20.891590 2.346980 -0.576711 25.022269 -5.391434 -17.510593 -29.556024 -173.306300 -0.000001 -17.788300
0.502870 16.749638 -0.084047 20.057235 75.677767 18.319559 -11.957638 4.197344 -0.929815 4.250756 16.394040 -6.411295 0.765013 2.908973 53.969017 2.080462 7.228452 23.353247 2.518900 0.000000 -45.397200 8.300267 -1.302351 -1.636870 19.641447 -16.103535 -20.405911 2.371595 -0.622035 25.565933 -5.322981 -17.025601 -30.014743 -173.283700 0.000000 -18.530400
0.662694 16.739472 -0.012428 18.948748 74.936844 17.391832 -11.955995 4.037099 -0.908253 3.840999 15.662747 -8.062420 0.831058 3.006563 55.621754 2.144550 8.959576 21.380895 3.150200 -0.000000 -42.836900 8.299729 -1.323739 -1.666451 19.703551 -15.745892 -19.848094 2.386751 -0.652790 25.965907 -5.283587 -16.668059 -30.473609 -173.230000 -0.000000 -19.288200
0.821104 16.730176 0.060418 17.993111 74.200331 16.627425 -11.940802 3.868356 -0.872112 3.395809 14.854621 -9.698251 0.886115 3.090229 57.002310 2.196755 10.530947 19.157069 3.593599 0.000000 -40.630900 8.304020 -1.337896 -1.689791 19.744708 -15.342027 -19.220736 2.393040 -0.670766 26.233282 -5.269498 -16.428839 -30.920606 -173.149000 -0.000000 -20.044300
0.978555 16.722125 0.134572 17.168792 73.471682 16.002070 -11.912742 3.693298 -0.817029 2.929544 13.966261 -11.300634 0.924581 3.156269 58.089698 2.235233 11.873343 16.768346 3.825800 0.000000 -38.729200 8.312962 -1.345742 -1.709271 19.763510 -14.907234 -18.532496 2.391706 -0.678110 26.383043 -5.274230 -16.286492 -31.338937 -173.050500 -0.000000 -20.762300
1.135473 16.715578 0.210049 16.452036 72.750568 15.491326 -11.872345 3.513710 -0.739657 2.455370 12.998439 -12.857113 0.941963 3.202009 58.873477 2.258505 12.944963 14.306297 3.853500 -0.000000 -37.128801 8.326512 -1.348599 -1.726503 19.760267 -14.455189 -17.797170 2.384558 -0.677328 26.434199 -5.289457 -16.210454 -31.710187 -172.948600 -0.000000 -21.397400
1.292108 16.710615 0.286742 15.813487 72.031818 15.066931 -11.820448 3.331098 -0.638849 1.987098 11.962557 -14.364844 0.935306 3.226751 59.359390 2.264827 13.726494 11.841022 3.702501 -0.000000 -35.713900 8.344039 -1.348177 -1.741004 19.738609 -13.992948 -17.030890 2.373627 -0.670684 26.406474 -5.306622 -16.166883 -32.017087 -172.858900 0.000001 -21.907300
1.448737 16.707167 0.364552 15.230788 71.308487 14.709556 -11.757635 3.146086 -0.514666 1.535570 10.872892 -15.826585 0.903552 3.230581 59.560650 2.254213 14.227356 9.432506 3.414700 -0.000001 -34.308300 8.365008 -1.346207 -1.751754 19.702647 -13.526302 -16.251756 2.361120 -0.660144 26.318617 -5.317850 -16.122714 -32.246707 -172.796400 0.000000 -22.258700
1.605536 16.705055 0.443332 14.683208 70.571007 14.402391 -11.684609 2.958521 -0.368786 1.108979 9.750414 -17.250699 0.847740 3.214353 59.497030 2.229610 14.484887 7.140814 3.042200 0.000000 -32.896200 8.388654 -1.344092 -1.756514 19.656758 -13.055032 -15.475559 2.348864 -0.647061 26.186944 -5.317112 -16.050627 -32.392048 -172.772600 0.000000 -22.433800
1.762606 16.703978 0.522980 14.155486 69.808797 14.134670 -11.601938 2.767697 -0.204311 0.713458 8.620131 -18.648227 0.770929 3.179363 59.190080 2.196766 14.559006 5.022686 2.637600 0.000000 -31.560300 8.414175 -1.342631 -1.752816 19.605423 -12.575985 -14.715314 2.338231 -0.632006 26.023152 -5.300767 -15.931803 -32.452623 -172.793800 0.000001 -22.431100
